<!-- icons.svg -->
<svg xmlns="http://www.w3.org/2000/svg" style="display: none;">

  <!-- Navigation Icons -->
  <symbol id="icon-home" viewBox="0 0 24 24" fill="none" stroke="currentColor" stroke-width="2" stroke-linecap="round" stroke-linejoin="round">
    <path d="M3 9l9-7 9 7v11a2 2 0 0 1-2 2H5a2 2 0 0 1-2-2z"></path>
    <polyline points="9 22 9 12 15 12 15 22"></polyline>
  </symbol>
  <symbol id="icon-map-pin" viewBox="0 0 24 24" fill="none" stroke="currentColor" stroke-width="2" stroke-linecap="round" stroke-linejoin="round">
    <path d="M21 10c0 7-9 13-9 13s-9-6-9-13a9 9 0 0 1 18 0z"></path>
    <circle cx="12" cy="10" r="3"></circle>
  </symbol>
   <symbol id="icon-smile" viewBox="0 0 24 24" fill="none" stroke="currentColor" stroke-width="2" stroke-linecap="round" stroke-linejoin="round">
    <circle cx="12" cy="12" r="10"></circle>
    <path d="M8 14s1.5 2 4 2 4-2 4-2"></path>
    <line x1="9" y1="9" x2="9.01" y2="9"></line>
    <line x1="15" y1="9" x2="15.01" y2="9"></line>
  </symbol>
  <symbol id="icon-users" viewBox="0 0 24 24" fill="none" stroke="currentColor" stroke-width="2" stroke-linecap="round" stroke-linejoin="round">
    <path d="M17 21v-2a4 4 0 0 0-4-4H5a4 4 0 0 0-4 4v2"></path>
    <circle cx="9" cy="7" r="4"></circle>
    <path d="M23 21v-2a4 4 0 0 0-3-3.87"></path>
    <path d="M16 3.13a4 4 0 0 1 0 7.75"></path>
   </symbol>
   <symbol id="icon-user" viewBox="0 0 24 24" fill="none" stroke="currentColor" stroke-width="2" stroke-linecap="round" stroke-linejoin="round">
    <path d="M20 21v-2a4 4 0 0 0-4-4H8a4 4 0 0 0-4 4v2"></path>
    <circle cx="12" cy="7" r="4"></circle>
  </symbol>

  <!-- Action Icons -->
   <symbol id="icon-scan" viewBox="0 0 24 24" fill="none" stroke="currentColor" stroke-width="2" stroke-linecap="round" stroke-linejoin="round">
      <path d="M3 7V5a2 2 0 0 1 2-2h2"></path>
      <path d="M17 3h2a2 2 0 0 1 2 2v2"></path>
      <path d="M21 17v2a2 2 0 0 1-2 2h-2"></path>
      <path d="M7 21H5a2 2 0 0 1-2-2v-2"></path>
      <line x1="7" y1="12" x2="17" y2="12"></line>
   </symbol>
    <symbol id="icon-filter" viewBox="0 0 24 24" fill="none" stroke="currentColor" stroke-width="2" stroke-linecap="round" stroke-linejoin="round">
      <polygon points="22 3 2 3 10 12.46 10 19 14 21 14 12.46 22 3"></polygon>
    </symbol>
     <symbol id="icon-heart" viewBox="0 0 24 24" fill="none" stroke="currentColor" stroke-width="2" stroke-linecap="round" stroke-linejoin="round">
      <path d="M20.84 4.61a5.5 5.5 0 0 0-7.78 0L12 5.67l-1.06-1.06a5.5 5.5 0 0 0-7.78 7.78l1.06 1.06L12 21.23l7.78-7.78 1.06-1.06a5.5 5.5 0 0 0 0-7.78z"></path>
    </symbol>
     <symbol id="icon-settings" viewBox="0 0 24 24" fill="none" stroke="currentColor" stroke-width="2" stroke-linecap="round" stroke-linejoin="round">
        <circle cx="12" cy="12" r="3"></circle>
        <path d="M19.4 15a1.65 1.65 0 0 0 .33 1.82l.06.06a2 2 0 0 1 0 2.83 2 2 0 0 1-2.83 0l-.06-.06a1.65 1.65 0 0 0-1.82-.33 1.65 1.65 0 0 0-1 1.51V21a2 2 0 0 1-2 2 2 2 0 0 1-2-2v-.09A1.65 1.65 0 0 0 9 19.4a1.65 1.65 0 0 0-1.82.33l-.06.06a2 2 0 0 1-2.83 0 2 2 0 0 1 0-2.83l.06-.06a1.65 1.65 0 0 0 .33-1.82 1.65 1.65 0 0 0-1.51-1H3a2 2 0 0 1-2-2 2 2 0 0 1 2-2h.09A1.65 1.65 0 0 0 4.6 9a1.65 1.65 0 0 0-.33-1.82l-.06-.06a2 2 0 0 1 0-2.83 2 2 0 0 1 2.83 0l.06.06a1.65 1.65 0 0 0 1.82.33H9a1.65 1.65 0 0 0 1-1.51V3a2 2 0 0 1 2-2 2 2 0 0 1 2 2v.09a1.65 1.65 0 0 0 1 1.51 1.65 1.65 0 0 0 1.82-.33l.06-.06a2 2 0 0 1 2.83 0 2 2 0 0 1 0 2.83l-.06.06a1.65 1.65 0 0 0-.33 1.82V9a1.65 1.65 0 0 0 1.51 1H21a2 2 0 0 1 2 2 2 2 0 0 1-2 2h-.09a1.65 1.65 0 0 0-1.51 1z"></path>
    </symbol>
     <symbol id="icon-plus" viewBox="0 0 24 24" fill="none" stroke="currentColor" stroke-width="2" stroke-linecap="round" stroke-linejoin="round">
        <line x1="12" y1="5" x2="12" y2="19"></line>
        <line x1="5" y1="12" x2="19" y2="12"></line>
    </symbol>
     <symbol id="icon-chevron-left" viewBox="0 0 24 24" fill="none" stroke="currentColor" stroke-width="2" stroke-linecap="round" stroke-linejoin="round">
        <polyline points="15 18 9 12 15 6"></polyline>
    </symbol>
     <symbol id="icon-chevron-right" viewBox="0 0 24 24" fill="none" stroke="currentColor" stroke-width="2" stroke-linecap="round" stroke-linejoin="round">
        <polyline points="9 18 15 12 9 6"></polyline>
    </symbol>
     <symbol id="icon-quote" viewBox="0 0 24 24" fill="currentColor">
        <path d="M6 17h3l2-4V7H5v6h3l-2 4zm8 0h3l2-4V7h-6v6h3l-2 4z"/>
    </symbol>
    <symbol id="icon-calendar" viewBox="0 0 24 24" fill="none" stroke="currentColor" stroke-width="2" stroke-linecap="round" stroke-linejoin="round">
        <rect x="3" y="4" width="18" height="18" rx="2" ry="2"></rect>
        <line x1="16" y1="2" x2="16" y2="6"></line>
        <line x1="8" y1="2" x2="8" y2="6"></line>
        <line x1="3" y1="10" x2="21" y2="10"></line>
    </symbol>
    <symbol id="icon-list" viewBox="0 0 24 24" fill="none" stroke="currentColor" stroke-width="2" stroke-linecap="round" stroke-linejoin="round">
        <line x1="8" y1="6" x2="21" y2="6"></line>
        <line x1="8" y1="12" x2="21" y2="12"></line>
        <line x1="8" y1="18" x2="21" y2="18"></line>
        <line x1="3" y1="6" x2="3.01" y2="6"></line>
        <line x1="3" y1="12" x2="3.01" y2="12"></line>
        <line x1="3" y1="18" x2="3.01" y2="18"></line>
    </symbol>

</svg>
